<svg width="232" height="49" viewBox="0 0 232 49" fill="none" xmlns="http://www.w3.org/2000/svg">
<g clip-path="url(#clip0_65_1098)">
<path d="M73.5757 8.5556H93.7982V13.8272H79.4703V19.0124H90.8724V24.284H79.4703V36.3828H73.5757V8.5556Z" fill="#C8EE41"/>
<path d="M96.552 11.2778C96.552 9.3766 98.144 7.77783 100.08 7.77783C101.973 7.77783 103.565 9.3766 103.565 11.2778C103.565 13.2223 101.973 14.821 100.08 14.821C98.144 14.821 96.552 13.2223 96.552 11.2778ZM97.2835 16.5062H102.834V36.426H97.2835V16.5062Z" fill="#C8EE41"/>
<path d="M115.57 13.784H107.524V8.46918H129.381V13.7408H121.464V36.3395H115.57V13.784Z" fill="#C8EE41"/>
<path d="M148.528 15.9013V36.3828H144.183L143.881 33.3149C142.289 36.0803 139.966 36.7716 137.427 36.7716C132.737 36.7716 128.994 33.3149 128.994 28.4754V15.9013H134.502V26.7037C134.502 29.6852 136.18 31.8025 138.503 31.8025C141.171 31.8025 143.021 29.6852 143.021 26.7037V15.9013H148.528Z" fill="#C8EE41"/>
<path d="M152.099 31.8457L155.24 28.6482C156.703 31.5 159.543 32.6667 162.598 32.6667C164.792 32.6667 166.083 32.2778 166.083 31.4136C166.083 30.1605 165.05 29.9013 161.651 29.1667C154.81 27.6544 152.573 26.1852 152.573 22.1235C152.573 18.1914 156.273 15.5124 161.135 15.5124C165.309 15.5124 168.708 17.3272 170.902 20.9568L167.761 24.2408C166.513 21.3457 163.286 20.4383 161.092 20.4383C158.682 20.4383 157.478 21.0865 157.478 21.9939C157.478 23.247 158.596 23.463 162.168 24.1112C169.181 25.3642 170.988 26.6605 170.988 31.1112C170.988 35.1297 166.858 37.3334 162.125 37.3334C157.779 37.3334 153.906 34.9136 152.099 31.8457Z" fill="#C8EE41"/>
<path d="M175.764 11.2778C175.764 9.3766 177.356 7.77783 179.292 7.77783C181.186 7.77783 182.778 9.3766 182.778 11.2778C182.778 13.2223 181.186 14.821 179.292 14.821C177.313 14.821 175.764 13.2223 175.764 11.2778ZM176.496 16.5062H182.046V36.426H176.496V16.5062Z" fill="#C8EE41"/>
<path d="M185.918 26.1852C185.918 19.963 190.608 15.5124 197.191 15.5124C203.775 15.5124 208.464 19.9198 208.464 26.1852C208.464 32.4075 203.775 36.8581 197.191 36.8581C190.608 36.8581 185.918 32.4075 185.918 26.1852ZM202.957 26.1852C202.957 22.9877 200.591 20.784 197.234 20.784C193.878 20.784 191.469 22.9877 191.469 26.1852C191.469 29.3828 193.835 31.5865 197.191 31.5865C200.548 31.5865 202.957 29.3396 202.957 26.1852Z" fill="#C8EE41"/>
<path d="M232 23.8087V36.3828H226.493V25.5803C226.493 22.5988 224.815 20.4815 222.491 20.4815C219.823 20.4815 217.973 22.5988 217.973 25.5803V36.3828H212.423V15.9013H216.769L217.07 18.9692C218.662 16.2037 220.985 15.5124 223.524 15.5124C228.214 15.5124 232 18.9692 232 23.8087Z" fill="#C8EE41"/>
<path d="M28.1826 0L21.1262 12.2716H35.239L28.1826 0Z" fill="#D8F56D"/>
<path d="M42.2521 0L35.2388 12.2716H49.3085L42.2521 0Z" fill="#E8FC9A"/>
<path d="M14.0698 0L7.0564 12.2716H21.1261L14.0698 0Z" fill="#C8EE41"/>
<path d="M35.2388 12.2716L42.2521 0H28.1824L35.2388 12.2716Z" fill="#E0F884"/>
<path d="M49.3086 12.2716L56.365 0H42.2522L49.3086 12.2716Z" fill="#F0FFB0"/>
<path d="M21.1262 12.2716L28.1826 0H14.0698L21.1262 12.2716Z" fill="#D0F157"/>
<path d="M28.1826 24.5L21.1262 36.7716H35.239L28.1826 24.5Z" fill="#D0F157"/>
<path d="M42.2521 24.5L35.2388 36.7716H49.3085L42.2521 24.5Z" fill="#E0F884"/>
<path d="M35.2388 36.7716L42.2521 24.5H28.1824L35.2388 36.7716Z" fill="#D8F56D"/>
<path d="M49.3086 36.7716L56.365 24.5H42.2522L49.3086 36.7716Z" fill="#E8FC9A"/>
<path d="M7.05638 36.7716L14.0697 24.5H0L7.05638 36.7716Z" fill="#C8EE41"/>
<path d="M28.1826 49L35.239 36.7716H21.1262L28.1826 49Z" fill="#C8EE41"/>
</g>
<defs>
<clipPath id="clip0_65_1098">
<rect width="232" height="49" fill="white"/>
</clipPath>
</defs>
</svg>
